<svg xmlns="http://www.w3.org/2000/svg" version="1.1" xmlns:xlink="http://www.w3.org/1999/xlink" xmlns:svgjs="http://svgjs.dev/svgjs" width="1000" height="750" viewBox="0 0 1000 750"><rect width="1000" height="750" fill="#ffffff"></rect><g transform="matrix(0.834,0,0,0.834,82.49510701094897,80.58599443685875)"><svg viewBox="0 0 396 280" data-background-color="#ffffff" preserveAspectRatio="xMidYMid meet" height="707" width="1000" xmlns="http://www.w3.org/2000/svg" xmlns:xlink="http://www.w3.org/1999/xlink"><defs></defs><g id="tight-bounds" transform="matrix(1,0,0,1,0.23973336170769244,-0.19231874865670306)"><svg viewBox="0 0 395.52 280.38463749731335" height="280.38463749731335" width="395.52"><g><svg viewBox="0 0 395.52 280.38463749731335" height="280.38463749731335" width="395.52"><g transform="matrix(1,0,0,1,0,170.86318501248846)"><svg viewBox="0 0 395.52 109.52145248482489" height="109.52145248482489" width="395.52"><g><svg viewBox="0 0 395.52 109.52145248482489" height="109.52145248482489" width="395.52"><g><svg viewBox="0 0 395.52 109.52145248482489" height="109.52145248482489" width="395.52"><g transform="matrix(1,0,0,1,0,0)"><svg width="395.52" viewBox="1.762808412626612 -19.398356200747717 227.41927146113315 62.97352781587358" height="109.52145248482489" data-palette-color="#2278a0"><path d="M22.057-16.35c2.52 0.74 4.704 1.891 6.552 3.455 1.848 1.564 3.143 3.375 3.887 5.434 0.752 2.055 0.809 4.167 0.173 6.335v0c-0.601 2.047-1.685 3.705-3.253 4.976-1.568 1.27-3.443 2.071-5.624 2.403-2.175 0.334-4.459 0.15-6.852-0.552v0c-1.183-0.347-2.285-0.785-3.304-1.313-1.027-0.524-1.867-1.038-2.518-1.541v0l-3.25 10.541c-0.233 0.793-0.691 1.36-1.374 1.702-0.688 0.333-1.496 0.363-2.424 0.091v0c-0.928-0.272-1.581-0.732-1.961-1.378-0.378-0.653-0.446-1.392-0.204-2.217v0c0.244-0.832 0.716-2.322 1.416-4.472v0c0.907-2.853 1.684-5.384 2.332-7.591v0c1.198-4.081 2.176-7.709 2.934-10.884v0l-0.172 0.053c-0.367 0.066-0.662 0.066-0.886 0.001v0c-0.512-0.15-0.854-0.546-1.028-1.187-0.173-0.641-0.153-1.327 0.062-2.056v0c0.16-0.544 0.455-0.936 0.887-1.178 0.43-0.235 1.063-0.473 1.898-0.714v0l0.613-0.133 0.197-0.672c0.28-0.953 0.734-1.591 1.364-1.913 0.634-0.314 1.476-0.317 2.524-0.01v0c1.055 0.31 1.765 0.639 2.128 0.989 0.363 0.35 0.502 0.668 0.418 0.957v0l-0.014 0.048c1.964 0.055 3.79 0.331 5.479 0.826zM17.352 0.57c2.041 0.599 3.881 0.531 5.52-0.204 1.638-0.728 2.706-1.94 3.204-3.635v0c0.505-1.721 0.211-3.322-0.884-4.803-1.087-1.479-2.687-2.529-4.797-3.148v0c-1.369-0.402-3.128-0.609-5.279-0.622v0c-0.405 1.618-0.66 2.603-0.763 2.955v0c-0.364 1.241-0.796 2.83-1.295 4.768v0c-0.216 0.972-0.385 1.666-0.506 2.082v0c0.546 0.508 1.268 1.005 2.168 1.49 0.898 0.493 1.775 0.865 2.632 1.117zM43.846 24.902c-3.982-0.794-6.98-2.477-8.996-5.047-2.008-2.576-2.612-5.868-1.813-9.876v0c0.514-2.576 1.488-4.747 2.921-6.514 1.44-1.766 3.248-3.009 5.425-3.731 2.182-0.714 4.593-0.807 7.235-0.28v0c2.609 0.52 4.823 1.537 6.642 3.049 1.812 1.517 3.079 3.391 3.803 5.623 0.731 2.233 0.832 4.67 0.306 7.311v0c-0.774 3.877-2.562 6.623-5.366 8.239-2.796 1.611-6.181 2.02-10.157 1.227zM44.676 20.235c2.216 0.442 4.094 0.164 5.632-0.835 1.538-0.998 2.555-2.736 3.049-5.214v0c0.494-2.478 0.267-4.661-0.682-6.55-0.944-1.881-2.54-3.046-4.788-3.494v0c-2.19-0.437-4.088-0.02-5.695 1.25-1.614 1.276-2.678 3.201-3.192 5.777v0c-0.514 2.576-0.236 4.623 0.834 6.142 1.07 1.519 2.684 2.493 4.842 2.924zM71.732 29.668c-2.276-0.282-4.203-1.074-5.782-2.379-1.586-1.298-2.667-2.873-3.244-4.724v0c-0.162-0.591-0.208-1.03-0.139-1.317v0c0.14-0.587 0.538-1.092 1.195-1.515 0.657-0.423 1.333-0.591 2.027-0.504v0c0.463 0.057 0.814 0.212 1.051 0.462 0.232 0.244 0.489 0.584 0.77 1.023v0c0.78 1.299 1.499 2.268 2.16 2.907 0.661 0.633 1.533 1.016 2.618 1.15v0c1.026 0.127 1.921 0.003 2.686-0.373 0.765-0.376 1.195-0.94 1.288-1.694v0c0.102-0.827-0.206-1.51-0.925-2.049-0.718-0.546-1.901-1.223-3.547-2.032v0c-1.674-0.805-3.014-1.539-4.021-2.2-1.006-0.662-1.834-1.544-2.484-2.645-0.656-1.102-0.888-2.431-0.695-3.986v0c0.188-1.515 0.783-2.798 1.786-3.85 1.003-1.051 2.278-1.797 3.824-2.237 1.547-0.447 3.193-0.562 4.94-0.346v0c1.853 0.229 3.421 0.776 4.704 1.641 1.284 0.858 2.216 1.903 2.796 3.137 0.587 1.228 0.799 2.5 0.636 3.817v0c-0.102 0.827-0.383 1.414-0.843 1.76-0.466 0.345-1.175 0.459-2.128 0.341v0c-0.926-0.115-1.526-0.34-1.8-0.676-0.281-0.337-0.438-0.776-0.472-1.318v0c0.042-2.238-1.125-3.505-3.5-3.799v0c-1.184-0.147-2.106-0.002-2.764 0.434-0.659 0.436-1.031 1.001-1.117 1.695v0c-0.102 0.827 0.215 1.521 0.951 2.083 0.73 0.561 1.935 1.244 3.616 2.05v0c1.615 0.737 2.936 1.438 3.962 2.102 1.02 0.664 1.858 1.54 2.516 2.629 0.652 1.082 0.882 2.4 0.689 3.955v0c-0.216 1.747-0.881 3.129-1.994 4.146-1.113 1.018-2.455 1.708-4.025 2.071-1.569 0.357-3.147 0.437-4.735 0.241zM116.116 9.982c-0.017 0.4-0.223 0.908-0.616 1.525v0c-0.142 0.194-0.405 0.563-0.789 1.107-0.391 0.55-0.767 1.151-1.128 1.803v0c-0.387 5.108-0.7 10.42-0.938 15.935v0l-0.276 5.233c-0.17 2.388-0.287 4.332-0.351 5.83v0c-0.029 0.666-0.325 1.2-0.89 1.603-0.571 0.409-1.337 0.593-2.296 0.551v0c-0.899-0.039-1.607-0.269-2.122-0.692-0.516-0.416-0.76-0.94-0.733-1.573v0c0.068-1.565 0.241-4.804 0.519-9.716v0l0.076-1.749c-1.651 1.297-3.788 1.888-6.413 1.776v0c-2.498-0.108-4.71-0.727-6.636-1.858-1.933-1.131-3.414-2.693-4.442-4.686-1.028-1.993-1.487-4.285-1.375-6.876v0c0.113-2.624 0.792-4.894 2.035-6.808 1.25-1.908 2.876-3.336 4.879-4.284 2.002-0.941 4.153-1.362 6.451-1.263v0c2.158 0.093 4.008 0.603 5.549 1.53 1.541 0.934 2.634 2.049 3.279 3.345v0c0.221-0.491 0.595-1.109 1.121-1.853v0c0.391-0.55 0.735-0.943 1.031-1.177 0.29-0.234 0.685-0.341 1.185-0.319v0c0.766 0.033 1.445 0.303 2.037 0.808 0.592 0.506 0.873 1.109 0.843 1.808zM107.012 24.273l0.542-7.924c-0.03-0.862-0.332-1.729-0.909-2.601-0.576-0.879-1.369-1.604-2.378-2.175-1.009-0.577-2.11-0.892-3.303-0.943v0c-1.932-0.083-3.585 0.569-4.959 1.958-1.374 1.389-2.117 3.362-2.227 5.919v0c-0.109 2.524 0.456 4.514 1.694 5.969 1.232 1.448 2.947 2.219 5.145 2.314v0c1.392 0.06 2.7-0.184 3.926-0.732 1.218-0.548 2.041-1.143 2.469-1.785zM141.926 23.946c0.036 0.959 0.156 1.735 0.358 2.328 0.202 0.593 0.427 1.075 0.675 1.446 0.248 0.378 0.373 0.616 0.377 0.716v0c0.025 0.66-0.22 1.243-0.734 1.749-0.508 0.5-1.162 0.764-1.962 0.795v0c-0.666 0.025-1.363-0.332-2.092-1.072-0.721-0.733-1.165-1.514-1.329-2.342v0c-1.206 2.507-3.488 3.824-6.846 3.951v0c-2.891 0.109-5.148-0.813-6.769-2.767-1.621-1.954-2.496-4.609-2.622-7.967v0l-0.451-11.961c-0.024-0.633 0.24-1.167 0.79-1.601 0.551-0.434 1.259-0.668 2.125-0.701v0c0.826-0.031 1.547 0.148 2.162 0.539 0.615 0.39 0.935 0.902 0.959 1.535v0l0.449 11.922c0.071 1.892 0.429 3.416 1.073 4.573 0.644 1.157 1.612 1.71 2.905 1.661v0c1.632-0.062 2.799-0.863 3.502-2.403 0.709-1.541 1.003-3.907 0.883-7.099v0l-0.337-8.923c-0.03-0.799 0.22-1.423 0.75-1.87 0.537-0.454 1.251-0.698 2.144-0.731v0c0.933-0.035 1.697 0.159 2.294 0.584 0.603 0.424 0.919 1.019 0.948 1.785v0zM173.409 22.548c0.575 0.031 1.036 0.182 1.386 0.455 0.356 0.279 0.583 0.815 0.68 1.61v0c0.084 0.688-0.028 1.286-0.335 1.794-0.307 0.508-0.759 0.798-1.355 0.87v0c-1.423 0.174-2.517 0.123-3.282-0.153-0.772-0.275-1.5-0.871-2.183-1.789v0c-1.129 2.247-3.51 3.592-7.144 4.036v0c-3.798 0.464-6.774-0.305-8.925-2.305-2.158-2-3.459-4.813-3.902-8.439v0c-0.295-2.415-0.072-4.656 0.671-6.721 0.735-2.064 1.941-3.77 3.616-5.116 1.683-1.341 3.713-2.156 6.088-2.446v0c1.35-0.165 2.604-0.043 3.763 0.366 1.158 0.409 2.07 1.027 2.734 1.853v0l0.022-1.061c-0.023-0.467 0.143-0.891 0.5-1.27 0.357-0.373 0.966-0.612 1.826-0.716v0c0.986-0.12 1.732 0.02 2.238 0.421 0.5 0.409 0.743 0.967 0.728 1.674v0c-0.069 1.083-0.056 2.975 0.039 5.678v0c0.062 1.329 0.22 3.036 0.474 5.12v0l0.283 2.323c0.17 1.39 0.374 2.379 0.615 2.967 0.24 0.589 0.728 0.872 1.463 0.849zM165.489 19.395c-0.141-1.427-0.376-3.493-0.707-6.2v0c-0.185-1.515-0.818-2.627-1.898-3.335-1.073-0.702-2.235-0.976-3.486-0.823v0c-1.82 0.222-3.176 1.19-4.068 2.904-0.899 1.715-1.213 3.681-0.942 5.898v0c0.262 2.144 0.959 3.866 2.092 5.164 1.127 1.306 2.616 1.846 4.469 1.621v0c1.515-0.185 2.688-0.731 3.517-1.639 0.83-0.901 1.171-2.097 1.023-3.59zM189.905-2.05c2.026-0.408 3.84-0.08 5.441 0.985 1.61 1.07 2.625 2.647 3.045 4.731v0c0.407 2.019 0.079 3.714-0.985 5.085-1.064 1.37-2.608 2.26-4.634 2.668v0c-0.974 0.196-1.688 0.177-2.144-0.058-0.454-0.228-0.75-0.685-0.888-1.371v0c-0.132-0.654-0.088-1.145 0.131-1.475 0.226-0.331 0.593-0.582 1.103-0.753v0c1.941-0.629 2.756-1.711 2.447-3.247v0c-0.145-0.719-0.452-1.266-0.922-1.64-0.465-0.382-1.056-0.501-1.776-0.357v0c-1.006 0.203-1.825 0.901-2.454 2.096-0.623 1.193-1.042 2.559-1.255 4.099-0.215 1.533-0.272 2.884-0.173 4.054v0c0.204 2.026 0.638 4.686 1.302 7.98v0c0.328 1.627 0.337 2.771 0.028 3.432-0.31 0.654-1.005 1.09-2.082 1.307v0c-1.039 0.209-1.847 0.151-2.423-0.175-0.576-0.326-0.971-0.94-1.187-1.841v0l-1.697-8.421c-0.361-1.791-0.721-3.377-1.081-4.76-0.368-1.388-0.85-3.056-1.447-5.003v0l-0.906-2.98c-0.209-0.699-0.097-1.324 0.336-1.873 0.435-0.543 1.109-0.907 2.025-1.092v0c1.529-0.308 2.503 0.24 2.922 1.646v0c0.296 1.131 0.644 2.522 1.046 4.175v0c0.278-1.824 0.945-3.394 1.999-4.707 1.061-1.315 2.471-2.15 4.229-2.505zM220.555 16.987c-2.815 0.801-5.36 0.928-7.636 0.383-2.282-0.543-4.191-1.625-5.727-3.247-1.536-1.622-2.64-3.616-3.313-5.982v0c-0.673-2.366-0.726-4.659-0.158-6.879 0.561-2.218 1.658-4.138 3.29-5.76 1.626-1.62 3.654-2.775 6.084-3.466v0c2.212-0.629 4.319-0.764 6.32-0.405 2.003 0.366 3.746 1.205 5.228 2.516 1.48 1.305 2.52 3.012 3.12 5.122v0c0.356 1.25 0.406 2.196 0.152 2.837-0.246 0.645-0.914 1.123-2.005 1.433v0l-16.419 4.815c0.255 0.898 0.824 1.741 1.707 2.529 0.881 0.782 2.005 1.336 3.373 1.661 1.372 0.317 2.857 0.248 4.454-0.206v0c1.09-0.31 1.972-0.706 2.646-1.189 0.678-0.491 1.2-0.996 1.565-1.516 0.372-0.522 0.783-1.207 1.234-2.056v0c0.344-0.618 0.805-1.009 1.382-1.173v0c0.603-0.171 1.255-0.097 1.956 0.223 0.695 0.322 1.128 0.785 1.299 1.388v0c0.128 0.449 0.093 0.996-0.105 1.641v0c-0.441 1.373-1.304 2.752-2.587 4.136-1.284 1.384-3.237 2.449-5.86 3.195zM208.4 4.516l13.829-4.089c0.257-0.073 0.41-0.168 0.459-0.286 0.056-0.12 0.048-0.305-0.023-0.555v0c-0.419-1.475-1.423-2.506-3.011-3.095-1.58-0.583-3.348-0.597-5.303-0.04v0c-1.5 0.427-2.741 1.133-3.723 2.119-0.981 0.986-1.649 2.039-2.002 3.158-0.359 1.128-0.434 2.057-0.226 2.788z" opacity="1" transform="matrix(1,0,0,1,0,0)" fill="#2278a0" class="undefined-text-0" data-fill-palette-color="primary" id="text-0"></path></svg></g></svg></g></svg></g></svg></g><g transform="matrix(1,0,0,1,117.26173242365368,0)"><svg viewBox="0 0 160.99653515269262 164.28217872723735" height="164.28217872723735" width="160.99653515269262"><g><svg xmlns="http://www.w3.org/2000/svg" xmlns:xlink="http://www.w3.org/1999/xlink" version="1.1" x="0" y="0" viewBox="15 17 49 50" enable-background="new 0 0 80 80" xml:space="preserve" height="164.28217872723735" width="160.99653515269262" class="icon-icon-0" data-fill-palette-color="accent" id="icon-0"><g fill="#2278a0" data-fill-palette-color="accent"><polygon fill="#2278a0" points="26,51 15,51 15,17 49,17 49,29 26,29  " data-fill-palette-color="accent"></polygon></g><g fill="#2278a0" data-fill-palette-color="accent"><path fill="#2278a0" d="M64 67H28V31h36V67zM30 65h32V33H30V65z" data-fill-palette-color="accent"></path></g></svg><g></g></g></svg></g><g></g></svg></g></svg><rect width="395.52" height="280.38463749731335" fill="none" stroke="none" visibility="hidden"></rect></g></svg></g></svg>