<svg aria-hidden="true" style="position: absolute; width: 0; height: 0; overflow: hidden;" version="1.1" xmlns="http://www.w3.org/2000/svg" xmlns:xlink="http://www.w3.org/1999/xlink">
  <defs>
    <symbol id="icon-heart-normal" viewBox="0 0 32 32">
      <path d="M29.193 5.265c-3.629-3.596-9.432-3.671-13.191-0.288-3.76-3.383-9.561-3.308-13.192 0.288-3.741 3.704-3.741 9.709 0 13.415 1.069 1.059 11.053 10.941 11.053 10.941 1.183 1.172 3.096 1.172 4.278 0 0 0 10.932-10.822 11.053-10.941 3.742-3.706 3.742-9.711-0.001-13.415zM27.768 17.268l-11.053 10.941c-0.393 0.391-1.034 0.391-1.425 0l-11.053-10.941c-2.95-2.92-2.95-7.671 0-10.591 2.844-2.815 7.416-2.914 10.409-0.222l1.356 1.22 1.355-1.22c2.994-2.692 7.566-2.594 10.41 0.222 2.95 2.919 2.95 7.67 0.001 10.591zM9.253 7.501c0.277 0 0.5 0.224 0.5 0.5s-0.224 0.5-0.5 0.5h-0.001c-1.794 0-3.249 1.455-3.249 3.249v0.001c0 0.276-0.224 0.5-0.5 0.5s-0.5-0.224-0.5-0.5v0c0-2.346 1.901-4.247 4.246-4.249 0.002 0 0.002-0.001 0.004-0.001z"></path>
    </symbol>
    <symbol id="icon-msg" viewBox="0 0 42 32">
      <path d="M35.652 14.023c-0.264-0.082-0.544 0.062-0.628 0.325-0.083 0.263 0.062 0.544 0.325 0.628 3.908 1.245 5.651 3.102 5.651 6.024 0 2.599-2.371 4.616-3.783 5.588-0.136 0.094-0.217 0.247-0.217 0.412v3.823c-0.73-0.272-2.003-0.89-3.126-2.155-0.117-0.131-0.295-0.191-0.468-0.159-0.285 0.055-0.576 0.133-0.871 0.212-0.51 0.137-1.036 0.279-1.535 0.279-2.568 0-4.366-0.552-6.204-1.903-0.224-0.164-0.535-0.115-0.699 0.107-0.164 0.223-0.116 0.535 0.106 0.699 2.027 1.49 3.996 2.097 6.797 2.097 0.631 0 1.223-0.159 1.795-0.313 0.178-0.049 0.355-0.097 0.53-0.138 1.869 1.974 3.983 2.423 4.075 2.441 0.033 0.007 0.066 0.010 0.1 0.010 0.114 0 0.227-0.039 0.316-0.113 0.117-0.095 0.184-0.237 0.184-0.387v-4.239c2.582-1.841 4-4.057 4-6.261 0-3.381-2.017-5.598-6.348-6.977zM33 13.5c0-7.696-7.018-13.5-16.323-13.5-9.352 0-16.677 5.931-16.677 13.502 0 4.539 3.211 7.791 6 9.759v6.636c0 0.17 0.086 0.327 0.228 0.42 0.083 0.053 0.177 0.080 0.272 0.080 0.069 0 0.139-0.015 0.205-0.044 0.146-0.065 3.559-1.616 6.479-4.809 1.265 0.235 2.696 0.461 3.994 0.461 9.463 0 15.822-5.026 15.822-12.505zM17.177 25.005c-1.31 0-2.799-0.251-4.083-0.496-0.173-0.031-0.351 0.028-0.468 0.159-2.050 2.312-4.459 3.781-5.626 4.414v-6.082c0-0.165-0.081-0.318-0.217-0.412-2.638-1.815-5.783-4.863-5.783-9.086 0-7.011 6.886-12.502 15.677-12.502 8.736 0 15.323 5.374 15.323 12.5 0 6.882-5.957 11.505-14.823 11.505zM16.5 11.5c-1.103 0-2 0.897-2 2s0.897 2 2 2 2-0.897 2-2-0.897-2-2-2zM16.5 14.5c-0.551 0-1-0.448-1-1s0.449-1 1-1 1 0.448 1 1-0.449 1-1 1zM23.5 11.5c-1.103 0-2 0.897-2 2s0.897 2 2 2 2-0.897 2-2-0.897-2-2-2zM23.5 14.5c-0.551 0-1-0.448-1-1s0.449-1 1-1 1 0.448 1 1-0.449 1-1 1zM9.5 11.595c-1.103 0-2 0.897-2 2s0.897 2 2 2 2-0.897 2-2-0.897-2-2-2zM9.5 14.595c-0.551 0-1-0.448-1-1s0.449-1 1-1 1 0.448 1 1-0.449 1-1 1z"></path>
    </symbol>
    <symbol id="icon-msg-sm" viewBox="0 0 24 24">
      <path d="M22 11.497v-0.497c0-0.017-0.001-0.038-0.002-0.058-0.136-2.338-1.113-4.461-2.642-6.051-1.602-1.667-3.814-2.752-6.301-2.889-0.016-0.001-0.036-0.002-0.055-0.002h-0.489c-1.405-0.016-2.882 0.31-4.264 1.008-1.223 0.621-2.291 1.488-3.139 2.535-1.322 1.634-2.107 3.705-2.108 5.946-0.014 1.275 0.253 2.61 0.824 3.877l-1.772 5.317c-0.066 0.196-0.072 0.418 0 0.632 0.175 0.524 0.741 0.807 1.265 0.632l5.314-1.771c1.16 0.527 2.484 0.826 3.876 0.823 1.372-0.009 2.714-0.308 3.941-0.866 1.912-0.871 3.54-2.373 4.541-4.375 0.644-1.249 1.015-2.715 1.011-4.261zM20 11.503c0.003 1.225-0.292 2.375-0.789 3.339-0.801 1.602-2.082 2.785-3.592 3.472-0.97 0.442-2.035 0.679-3.126 0.686-1.221 0.003-2.371-0.292-3.335-0.789-0.249-0.129-0.528-0.142-0.775-0.060l-3.803 1.268 1.268-3.803c0.088-0.263 0.060-0.537-0.056-0.767-0.552-1.094-0.804-2.254-0.792-3.338 0.001-1.789 0.619-3.42 1.663-4.709 0.671-0.829 1.518-1.517 2.49-2.010 1.092-0.552 2.252-0.804 3.336-0.792h0.456c1.962 0.107 3.704 0.961 4.969 2.277 1.202 1.251 1.972 2.916 2.086 4.753z"></path>
    </symbol>
    <symbol id="icon-home" viewBox="0 0 32 32">
      <path d="M32 18.451l-16-12.42-16 12.42v-5.064l16-12.42 16 12.42zM28 18v12h-8v-8h-8v8h-8v-12l12-9z"></path>
    </symbol>
    <symbol id="icon-camera" viewBox="0 0 32 32">
      <path d="M9.5 19c0 3.59 2.91 6.5 6.5 6.5s6.5-2.91 6.5-6.5-2.91-6.5-6.5-6.5-6.5 2.91-6.5 6.5zM30 8h-7c-0.5-2-1-4-3-4h-8c-2 0-2.5 2-3 4h-7c-1.1 0-2 0.9-2 2v18c0 1.1 0.9 2 2 2h28c1.1 0 2-0.9 2-2v-18c0-1.1-0.9-2-2-2zM16 27.875c-4.902 0-8.875-3.973-8.875-8.875s3.973-8.875 8.875-8.875c4.902 0 8.875 3.973 8.875 8.875s-3.973 8.875-8.875 8.875zM30 14h-4v-2h4v2z"></path>
    </symbol>
    <symbol id="icon-email" viewBox="0 0 32 32">
      <path d="M29 4h-26c-1.65 0-3 1.35-3 3v20c0 1.65 1.35 3 3 3h26c1.65 0 3-1.35 3-3v-20c0-1.65-1.35-3-3-3zM12.461 17.199l-8.461 6.59v-15.676l8.461 9.086zM5.512 8h20.976l-10.488 7.875-10.488-7.875zM12.79 17.553l3.21 3.447 3.21-3.447 6.58 8.447h-19.579l6.58-8.447zM19.539 17.199l8.461-9.086v15.676l-8.461-6.59z"></path>
    </symbol>
    <symbol id="icon-bell" viewBox="0 0 32 32">
      <path d="M32.047 25c0-9-8-7-8-14 0-0.58-0.056-1.076-0.158-1.498-0.526-3.532-2.88-6.366-5.93-7.23 0.027-0.123 0.041-0.251 0.041-0.382 0-1.040-0.9-1.891-2-1.891s-2 0.851-2 1.891c0 0.131 0.014 0.258 0.041 0.382-3.421 0.969-5.966 4.416-6.039 8.545-0.001 0.060-0.002 0.121-0.002 0.183 0 7-8 5-8 14 0 2.382 5.331 4.375 12.468 4.878 0.673 1.263 2.002 2.122 3.532 2.122s2.86-0.86 3.532-2.122c7.137-0.503 12.468-2.495 12.468-4.878 0-0.007-0.001-0.014-0.001-0.021l0.048 0.021zM25.82 26.691c-1.695 0.452-3.692 0.777-5.837 0.958-0.178-2.044-1.893-3.648-3.984-3.648s-3.805 1.604-3.984 3.648c-2.144-0.18-4.142-0.506-5.837-0.958-2.332-0.622-3.447-1.318-3.855-1.691 0.408-0.372 1.523-1.068 3.855-1.691 2.712-0.724 6.199-1.122 9.82-1.122s7.109 0.398 9.82 1.122c2.332 0.622 3.447 1.318 3.855 1.691-0.408 0.372-1.523 1.068-3.855 1.691z"></path>
    </symbol>
    <symbol id="icon-user" viewBox="0 0 32 32">
      <path d="M18 22.082v-1.649c2.203-1.241 4-4.337 4-7.432 0-4.971 0-9-6-9s-6 4.029-6 9c0 3.096 1.797 6.191 4 7.432v1.649c-6.784 0.555-12 3.888-12 7.918h28c0-4.030-5.216-7.364-12-7.918z"></path>
    </symbol>
    <symbol id="icon-setting" viewBox="0 0 32 32">
      <path d="M29.181 19.070c-1.679-2.908-0.669-6.634 2.255-8.328l-3.145-5.447c-0.898 0.527-1.943 0.829-3.058 0.829-3.361 0-6.085-2.742-6.085-6.125h-6.289c0.008 1.044-0.252 2.103-0.811 3.070-1.679 2.908-5.411 3.897-8.339 2.211l-3.144 5.447c0.905 0.515 1.689 1.268 2.246 2.234 1.676 2.903 0.672 6.623-2.241 8.319l3.145 5.447c0.895-0.522 1.935-0.82 3.044-0.82 3.35 0 6.067 2.725 6.084 6.092h6.289c-0.003-1.034 0.259-2.080 0.811-3.038 1.676-2.903 5.399-3.894 8.325-2.219l3.145-5.447c-0.899-0.515-1.678-1.266-2.232-2.226zM16 22.479c-3.578 0-6.479-2.901-6.479-6.479s2.901-6.479 6.479-6.479c3.578 0 6.479 2.901 6.479 6.479s-2.901 6.479-6.479 6.479z"></path>
    </symbol>
    <symbol id="icon-heart-solid" viewBox="0 0 32 32">
      <path d="M23.6 2c-3.363 0-6.258 2.736-7.599 5.594-1.342-2.858-4.237-5.594-7.601-5.594-4.637 0-8.4 3.764-8.4 8.401 0 9.433 9.516 11.906 16.001 21.232 6.13-9.268 15.999-12.1 15.999-21.232 0-4.637-3.763-8.401-8.4-8.401z"></path>
    </symbol>
    <symbol id="icon-cross" viewBox="0 0 32 32">
      <path d="M31.708 25.708c-0-0-0-0-0-0l-9.708-9.708 9.708-9.708c0-0 0-0 0-0 0.105-0.105 0.18-0.227 0.229-0.357 0.133-0.356 0.057-0.771-0.229-1.057l-4.586-4.586c-0.286-0.286-0.702-0.361-1.057-0.229-0.13 0.048-0.252 0.124-0.357 0.228 0 0-0 0-0 0l-9.708 9.708-9.708-9.708c-0-0-0-0-0-0-0.105-0.104-0.227-0.18-0.357-0.228-0.356-0.133-0.771-0.057-1.057 0.229l-4.586 4.586c-0.286 0.286-0.361 0.702-0.229 1.057 0.049 0.13 0.124 0.252 0.229 0.357 0 0 0 0 0 0l9.708 9.708-9.708 9.708c-0 0-0 0-0 0-0.104 0.105-0.18 0.227-0.229 0.357-0.133 0.355-0.057 0.771 0.229 1.057l4.586 4.586c0.286 0.286 0.702 0.361 1.057 0.229 0.13-0.049 0.252-0.124 0.357-0.229 0-0 0-0 0-0l9.708-9.708 9.708 9.708c0 0 0 0 0 0 0.105 0.105 0.227 0.18 0.357 0.229 0.356 0.133 0.771 0.057 1.057-0.229l4.586-4.586c0.286-0.286 0.362-0.702 0.229-1.057-0.049-0.13-0.124-0.252-0.229-0.357z"></path>
    </symbol>
    <symbol id="icon-logout" viewBox="0 0 32 32">
      <path d="M24 20v-4h-10v-4h10v-4l6 6zM22 18v8h-10v6l-12-6v-26h22v10h-2v-8h-16l8 4v18h8v-6z"></path>
    </symbol>
    <symbol id="icon-arrow-left2" viewBox="0 0 32 32">
      <path d="M12.586 27.414l-10-10c-0.781-0.781-0.781-2.047 0-2.828l10-10c0.781-0.781 2.047-0.781 2.828 0s0.781 2.047 0 2.828l-6.586 6.586h19.172c1.105 0 2 0.895 2 2s-0.895 2-2 2h-19.172l6.586 6.586c0.39 0.39 0.586 0.902 0.586 1.414s-0.195 1.024-0.586 1.414c-0.781 0.781-2.047 0.781-2.828 0z"></path>
    </symbol>

    <symbol id="icon-cross" width="32" height="32" viewBox="0 0 32 32">
      <path d="M31.708 25.708c-0-0-0-0-0-0l-9.708-9.708 9.708-9.708c0-0 0-0 0-0 0.105-0.105 0.18-0.227 0.229-0.357 0.133-0.356 0.057-0.771-0.229-1.057l-4.586-4.586c-0.286-0.286-0.702-0.361-1.057-0.229-0.13 0.048-0.252 0.124-0.357 0.228 0 0-0 0-0 0l-9.708 9.708-9.708-9.708c-0-0-0-0-0-0-0.105-0.104-0.227-0.18-0.357-0.228-0.356-0.133-0.771-0.057-1.057 0.229l-4.586 4.586c-0.286 0.286-0.361 0.702-0.229 1.057 0.049 0.13 0.124 0.252 0.229 0.357 0 0 0 0 0 0l9.708 9.708-9.708 9.708c-0 0-0 0-0 0-0.104 0.105-0.18 0.227-0.229 0.357-0.133 0.355-0.057 0.771 0.229 1.057l4.586 4.586c0.286 0.286 0.702 0.361 1.057 0.229 0.13-0.049 0.252-0.124 0.357-0.229 0-0 0-0 0-0l9.708-9.708 9.708 9.708c0 0 0 0 0 0 0.105 0.105 0.227 0.18 0.357 0.229 0.356 0.133 0.771 0.057 1.057-0.229l4.586-4.586c0.286-0.286 0.362-0.702 0.229-1.057-0.049-0.13-0.124-0.252-0.229-0.357z"></path>
    </symbol>

    <symbol id="icon-check" viewBox="0 0 32 32">
      <path d="M27 4l-15 15-7-7-5 5 12 12 20-20z"></path>
    </symbol>


    <symbol id="icon-brand-logo" width="50" height="50" viewBox="0 0 50 50" fill="none" xmlns="http://www.w3.org/2000/svg">
      <path fill-rule="evenodd" clip-rule="evenodd" d="M30.6996 23.4711C30.6996 23.4711 23.2327 35.5783 17.1109 35.5783C6.40308 35.5783 16.382 12.5134 24.1916 12.5134C29.6409 12.5134 30.6996 23.4711 30.6996 23.4711V23.4711Z" fill="#FF6600" />
      <path fill-rule="evenodd" clip-rule="evenodd" d="M39.5723 38.6973C37.4451 40.9608 34.8198 42.6977 31.9044 43.7702C28.989 44.8427 25.8639 45.2214 22.7767 44.8762C19.6895 44.531 16.7252 43.4714 14.1188 41.7814C11.5125 40.0915 9.33573 37.8176 7.76123 35.1402C9.5314 37.5478 12.5338 39.1528 16.803 39.1528C27.3199 39.1528 33.2899 30.9801 33.2899 30.9801C33.2899 30.9801 33.8062 37.4393 39.5593 38.6973H39.5723Z" fill="#FF6600" />
      <path fill-rule="evenodd" clip-rule="evenodd" d="M42.7223 15.7452C44.2963 18.7528 45.0781 22.1117 44.9939 25.5051C44.9096 28.8985 43.9621 32.2145 42.2407 35.1402C40.8792 34.3766 39.8725 33.1083 39.4379 31.6091L37.1558 24.7725L42.7223 15.7452V15.7452Z" fill="#FF6600" />
      <path fill-rule="evenodd" clip-rule="evenodd" d="M25.0031 5.01737C30.0185 5.01403 34.8513 6.89881 38.5398 10.2967L34.7521 16.4088C33.3811 12.843 30.5957 9.2729 25.1767 9.2729C14.0784 9.2729 5.85231 21.3888 5.85231 28.9846C5.84986 29.9669 5.97528 30.9454 6.22543 31.8953C5.11558 28.8725 4.75205 25.6265 5.16572 22.4331C5.57938 19.2398 6.75802 16.1934 8.60147 13.5531C10.4449 10.9127 12.8987 8.75634 15.7542 7.26726C18.6097 5.77818 21.7826 5.00039 25.0031 5V5.01737Z" fill="#FF6600" />
    </symbol>

    <symbol id="post-icon" width="24" height="22" viewBox="0 0 24 22" xmlns="http://www.w3.org/2000/svg">
      <path d="M8.8 5.2002H5.6V1.9002C5.6 1.5002 5.3 1.1002 4.8 1.1002C4.3 1.1002 4.1 1.5002 4.1 1.9002V5.2002H0.8C0.4 5.2002 0 5.5002 0 6.0002C0 6.5002 0.3 6.8002 0.8 6.8002H4.1V10.1002C4.1 10.5002 4.4 10.9002 4.9 10.9002C5.4 10.9002 5.7 10.6002 5.7 10.1002V6.7002H9C9.4 6.7002 9.8 6.4002 9.8 5.9002C9.8 5.4002 9.3 5.2002 8.8 5.2002ZM23.8 0.300195V0.200195H23.7C23.6 0.200195 14.5 1.4002 9.3 11.9002C5.5 19.5002 5.7 21.8002 6 21.8002C6.3 21.9002 9.4 15.3002 12.7 12.6002C17.9 11.5002 19.3 9.0002 19.3 9.0002C19.3 9.0002 17.8 9.2002 17.2 9.2002C16.4 9.2002 15.8 9.0002 15.5 8.9002C16.8 7.7002 17.9 7.4002 19 7.2002C19.9 7.0002 20.8 6.8002 22 6.0002C24.2 4.4002 23.9 0.500195 23.8 0.300195Z" />
    </symbol>

    <symbol id="icon-followed" width="24" height="23" viewBox="0 0 24 23" xmlns="http://www.w3.org/2000/svg">
      <path d="M23.61 0.150052C23.235 -0.0339485 22.788 0.120052 22.604 0.490052L19.74 6.26605L18.037 4.45605C17.754 4.15305 17.279 4.14005 16.977 4.42405C16.675 4.70805 16.661 5.18405 16.945 5.48405L19.388 8.08005C19.531 8.23005 19.728 8.31505 19.934 8.31505C19.97 8.31505 20.007 8.31205 20.044 8.30705C20.287 8.27105 20.496 8.11705 20.606 7.89705L23.948 1.15705C24.132 0.785051 23.98 0.335052 23.608 0.151052L23.61 0.150052ZM19.018 16.6251C18.935 16.5611 16.974 15.0001 17.008 10.8651C17.03 8.43205 16.228 6.26905 14.752 4.77505C13.428 3.43505 11.636 2.69205 9.70601 2.68305H9.69301C7.76301 2.69305 5.971 3.43305 4.64701 4.77505C3.17201 6.27005 2.37001 8.43305 2.39001 10.8671C2.42601 15.0001 0.467005 16.5601 0.390005 16.6201C0.130005 16.8131 0.0230054 17.1501 0.124005 17.4581C0.226005 17.7661 0.514005 17.9731 0.836005 17.9731H4.91601C5.004 20.5431 7.10901 22.6131 9.70101 22.6131C12.293 22.6131 14.399 20.5431 14.486 17.9731H18.568C18.888 17.9731 19.172 17.7671 19.275 17.4631C19.378 17.159 19.273 16.8201 19.019 16.6251H19.018ZM9.70001 20.5131C8.26601 20.5131 7.10001 19.3861 7.01601 17.9731H12.384C12.299 19.3861 11.134 20.5131 9.70001 20.5131Z" />
    </symbol>


    <symbol id="icon-google-plus" viewBox="0 0 36 28">
      <path d="M22.453 14.266c0 6.547-4.391 11.188-11 11.188-6.328 0-11.453-5.125-11.453-11.453s5.125-11.453 11.453-11.453c3.094 0 5.672 1.125 7.672 3l-3.109 2.984c-0.844-0.812-2.328-1.766-4.562-1.766-3.906 0-7.094 3.234-7.094 7.234s3.187 7.234 7.094 7.234c4.531 0 6.234-3.266 6.5-4.937h-6.5v-3.938h10.813c0.109 0.578 0.187 1.156 0.187 1.906zM36 12.359v3.281h-3.266v3.266h-3.281v-3.266h-3.266v-3.281h3.266v-3.266h3.281v3.266h3.266z"></path>
    </symbol>

    <symbol id="icon-google" xmlns="http://www.w3.org/2000/svg" viewBox="0 0 40 40">
      <path fill="#8bb7f0" d="M28.229,29.396c1.528-1.345,2.711-3.051,3.438-4.968c0.187-0.491,0.321-0.905,0.423-1.303 l0.16-0.625H20.5v-6h17.662c0.225,1.167,0.338,2.343,0.338,3.5c0,5.005-2.069,9.834-5.692,13.32L28.229,29.396z" />
      <path fill="#4e7ab5" d="M37.744,17C37.914,18.002,38,19.008,38,20c0,4.719-1.891,9.277-5.216,12.641l-3.802-3.259 c1.385-1.333,2.465-2.964,3.153-4.777c0.192-0.506,0.332-0.937,0.44-1.355L32.897,22h-1.291H21v-5H37.744 M38.57,16H20v7h11.607 c-0.11,0.428-0.252,0.842-0.406,1.25c-0.772,2.034-2.073,3.808-3.744,5.141l5.367,4.6C36.611,30.518,39,25.544,39,20 C39,18.627,38.847,17.291,38.57,16L38.57,16z" />
      <path fill="#8bb7f0" d="M32.828,22c-0.501,3.231-2.175,6.075-4.594,8.058l3.825,3.278c3.175-2.873,5.329-6.852,5.828-11.336 H32.828z" />
      <path fill="#bae0bd" d="M20,38.5c-6.903,0-13.128-3.773-16.349-9.877l4.957-3.499C10.625,29.626,15.031,32.5,20,32.5 c2.713,0,5.277-0.851,7.439-2.465l4.624,3.963C28.695,36.906,24.434,38.5,20,38.5z" />
      <path fill="#5e9c76" d="M8.411,25.875C10.612,30.242,15.035,33,20,33c2.688,0,5.234-0.803,7.413-2.329l3.876,3.322 C28.086,36.585,24.12,38,20,38c-6.57,0-12.509-3.513-15.697-9.225L8.411,25.875 M8.828,24.357l-5.82,4.108 C6.123,34.704,12.552,39,20,39c4.949,0,9.442-1.908,12.823-5.009l-5.367-4.6C25.411,31.023,22.822,32,20,32 C14.911,32,10.573,28.827,8.828,24.357L8.828,24.357z" />
      <path fill="#bae0bd" d="M28.234,30.058C25.992,31.896,23.125,33,20,33c-5.407,0-10.041-3.303-12-8l-4.13,2.95 C6.807,33.899,12.917,38,20,38c4.645,0,8.866-1.775,12.059-4.664L28.234,30.058z" />
      <path fill="#f78f8f" d="M3.891,10.907C7.177,5.094,13.31,1.5,20,1.5c4.493,0,8.8,1.632,12.186,4.607l-4.212,4.212 C25.757,8.498,22.944,7.5,20,7.5c-4.84,0-9.196,2.763-11.271,7.093L3.891,10.907z" />
      <path fill="#c74343" d="M20,2c4.193,0,8.22,1.462,11.449,4.136l-3.515,3.515C25.688,7.935,22.905,7,20,7 c-4.828,0-9.192,2.643-11.445,6.832l-4.01-3.055C7.791,5.342,13.637,2,20,2 M20,1C12.746,1,6.446,5.068,3.245,11.044l5.682,4.329 C10.738,11.043,15.013,8,20,8c3.059,0,5.881,1.116,8,3l4.911-4.911C29.52,2.94,24.992,1,20,1L20,1z" />
      <g>
        <path fill="#f78f8f" d="M20,7V2C13.07,2,7.064,5.922,4.056,11.662l4.056,3.09C10.13,10.189,14.689,7,20,7z" />
      </g>
      <g>
        <path fill="#ffeea3" d="M3.235,27.789C2.083,25.324,1.5,22.707,1.5,20c0-2.838,0.661-5.66,1.917-8.197l4.905,3.737 C7.776,16.965,7.5,18.463,7.5,20c0,1.435,0.249,2.851,0.74,4.214L3.235,27.789z" />
        <path fill="#ba9b48" d="M3.604,12.574l4.121,3.14C7.244,17.09,7,18.528,7,20c0,1.367,0.217,2.717,0.646,4.024l-4.204,3.003 C2.484,24.791,2,22.432,2,20C2,17.441,2.552,14.897,3.604,12.574 M3.245,11.044C1.815,13.713,1,16.76,1,20 c0,3.075,0.747,5.97,2.044,8.54l5.799-4.142C8.305,23.035,8,21.554,8,20c0-1.64,0.331-3.203,0.927-4.627L3.245,11.044L3.245,11.044 z" />
      </g>
      <g>
        <path fill="#ffeea3" d="M7,20c0-1.869,0.402-3.642,1.112-5.248l-4.056-3.09C2.749,14.156,2,16.989,2,20 c0,2.858,0.684,5.55,1.869,7.951L8,25C7.357,23.461,7,21.772,7,20z" />
      </g>
    </symbol>

    <symbol id="icon-images" viewBox="0 0 36 32">
      <path d="M34 4h-2v-2c0-1.1-0.9-2-2-2h-28c-1.1 0-2 0.9-2 2v24c0 1.1 0.9 2 2 2h2v2c0 1.1 0.9 2 2 2h28c1.1 0 2-0.9 2-2v-24c0-1.1-0.9-2-2-2zM4 6v20h-1.996c-0.001-0.001-0.003-0.002-0.004-0.004v-23.993c0.001-0.001 0.002-0.003 0.004-0.004h27.993c0.001 0.001 0.003 0.002 0.004 0.004v1.996h-24c-1.1 0-2 0.9-2 2v0zM34 29.996c-0.001 0.001-0.002 0.003-0.004 0.004h-27.993c-0.001-0.001-0.003-0.002-0.004-0.004v-23.993c0.001-0.001 0.002-0.003 0.004-0.004h27.993c0.001 0.001 0.003 0.002 0.004 0.004v23.993z"></path>
      <path d="M30 11c0 1.657-1.343 3-3 3s-3-1.343-3-3 1.343-3 3-3 3 1.343 3 3z"></path>
      <path d="M32 28h-24v-4l7-12 8 10h2l7-6z"></path>
    </symbol>

    <symbol id="icon-film" viewBox="0 0 32 32">
      <path d="M0 4v24h32v-24h-32zM6 26h-4v-4h4v4zM6 18h-4v-4h4v4zM6 10h-4v-4h4v4zM24 26h-16v-20h16v20zM30 26h-4v-4h4v4zM30 18h-4v-4h4v4zM30 10h-4v-4h4v4zM12 10v12l8-6z"></path>
    </symbol>

    <symbol id="icon-emoji" viewBox="0 0 32 32">
      <path d="M16 32c8.837 0 16-7.163 16-16s-7.163-16-16-16-16 7.163-16 16 7.163 16 16 16zM16 3c7.18 0 13 5.82 13 13s-5.82 13-13 13-13-5.82-13-13 5.82-13 13-13zM6 16v2c0 4.4 3.6 8 8 8h4c4.4 0 8-3.6 8-8v-2h-20zM12 23.656c-0.829-0.296-1.591-0.776-2.236-1.42-1.138-1.138-1.764-2.642-1.764-4.236h4v5.656zM18 24h-4v-6h4v6zM22.236 22.236c-0.645 0.645-1.407 1.125-2.236 1.42v-5.656h4c0 1.594-0.627 3.098-1.764 4.236zM7.042 12c0 0 0 0 0 0 0.305 0 0.566-0.22 0.616-0.522 0.192-1.146 1.177-1.978 2.341-1.978s2.149 0.832 2.341 1.978c0.050 0.301 0.311 0.522 0.616 0.522s0.566-0.22 0.616-0.521c0.034-0.201 0.051-0.404 0.051-0.604 0-1.999-1.626-3.625-3.625-3.625s-3.625 1.626-3.625 3.625c0 0.199 0.017 0.402 0.051 0.604 0.051 0.301 0.311 0.521 0.616 0.521zM19.042 12c0 0 0 0 0 0 0.305 0 0.566-0.22 0.616-0.522 0.192-1.146 1.177-1.978 2.341-1.978s2.149 0.832 2.341 1.978c0.050 0.301 0.311 0.522 0.616 0.522s0.566-0.22 0.616-0.521c0.034-0.201 0.051-0.404 0.051-0.604 0-1.999-1.626-3.625-3.625-3.625s-3.625 1.626-3.625 3.625c0 0.199 0.017 0.402 0.051 0.604 0.051 0.301 0.311 0.521 0.617 0.521z"></path>
    </symbol>

    <symbol id="icon-eye" viewBox="0 0 32 32">
      <path d="M16 6c-6.979 0-13.028 4.064-16 10 2.972 5.936 9.021 10 16 10s13.027-4.064 16-10c-2.972-5.936-9.021-10-16-10zM23.889 11.303c1.88 1.199 3.473 2.805 4.67 4.697-1.197 1.891-2.79 3.498-4.67 4.697-2.362 1.507-5.090 2.303-7.889 2.303s-5.527-0.796-7.889-2.303c-1.88-1.199-3.473-2.805-4.67-4.697 1.197-1.891 2.79-3.498 4.67-4.697 0.122-0.078 0.246-0.154 0.371-0.228-0.311 0.854-0.482 1.776-0.482 2.737 0 4.418 3.582 8 8 8s8-3.582 8-8c0-0.962-0.17-1.883-0.482-2.737 0.124 0.074 0.248 0.15 0.371 0.228v0zM16 13c0 1.657-1.343 3-3 3s-3-1.343-3-3 1.343-3 3-3 3 1.343 3 3z"></path>
    </symbol>

    <symbol id="icon-eye-blocked" viewBox="0 0 32 32">
      <path d="M29.561 0.439c-0.586-0.586-1.535-0.586-2.121 0l-6.318 6.318c-1.623-0.492-3.342-0.757-5.122-0.757-6.979 0-13.028 4.064-16 10 1.285 2.566 3.145 4.782 5.407 6.472l-4.968 4.968c-0.586 0.586-0.586 1.535 0 2.121 0.293 0.293 0.677 0.439 1.061 0.439s0.768-0.146 1.061-0.439l27-27c0.586-0.586 0.586-1.536 0-2.121zM13 10c1.32 0 2.44 0.853 2.841 2.037l-3.804 3.804c-1.184-0.401-2.037-1.521-2.037-2.841 0-1.657 1.343-3 3-3zM3.441 16c1.197-1.891 2.79-3.498 4.67-4.697 0.122-0.078 0.246-0.154 0.371-0.228-0.311 0.854-0.482 1.776-0.482 2.737 0 1.715 0.54 3.304 1.459 4.607l-1.904 1.904c-1.639-1.151-3.038-2.621-4.114-4.323z"></path>
      <path d="M24 13.813c0-0.849-0.133-1.667-0.378-2.434l-10.056 10.056c0.768 0.245 1.586 0.378 2.435 0.378 4.418 0 8-3.582 8-8z"></path>
      <path d="M25.938 9.062l-2.168 2.168c0.040 0.025 0.079 0.049 0.118 0.074 1.88 1.199 3.473 2.805 4.67 4.697-1.197 1.891-2.79 3.498-4.67 4.697-2.362 1.507-5.090 2.303-7.889 2.303-1.208 0-2.403-0.149-3.561-0.439l-2.403 2.403c1.866 0.671 3.873 1.036 5.964 1.036 6.978 0 13.027-4.064 16-10-1.407-2.81-3.504-5.2-6.062-6.938z"></path>
    </symbol>

    <symbol id="icon-chat" viewBox="0 0 42 32">
      <path d="M35.652 14.023c-0.264-0.082-0.544 0.062-0.628 0.325-0.083 0.263 0.062 0.544 0.325 0.628 3.908 1.245 5.651 3.102 5.651 6.024 0 2.599-2.371 4.616-3.783 5.588-0.136 0.094-0.217 0.247-0.217 0.412v3.823c-0.73-0.272-2.003-0.89-3.126-2.155-0.117-0.131-0.295-0.191-0.468-0.159-0.285 0.055-0.576 0.133-0.871 0.212-0.51 0.137-1.036 0.279-1.535 0.279-2.568 0-4.366-0.552-6.204-1.903-0.224-0.164-0.535-0.115-0.699 0.107-0.164 0.223-0.116 0.535 0.106 0.699 2.027 1.49 3.996 2.097 6.797 2.097 0.631 0 1.223-0.159 1.795-0.313 0.178-0.049 0.355-0.097 0.53-0.138 1.869 1.974 3.983 2.423 4.075 2.441 0.033 0.007 0.066 0.010 0.1 0.010 0.114 0 0.227-0.039 0.316-0.113 0.117-0.095 0.184-0.237 0.184-0.387v-4.239c2.582-1.841 4-4.057 4-6.261 0-3.381-2.017-5.598-6.348-6.977zM33 13.5c0-7.696-7.018-13.5-16.323-13.5-9.352 0-16.677 5.931-16.677 13.502 0 4.539 3.211 7.791 6 9.759v6.636c0 0.17 0.086 0.327 0.228 0.42 0.083 0.053 0.177 0.080 0.272 0.080 0.069 0 0.139-0.015 0.205-0.044 0.146-0.065 3.559-1.616 6.479-4.809 1.265 0.235 2.696 0.461 3.994 0.461 9.463 0 15.822-5.026 15.822-12.505zM17.177 25.005c-1.31 0-2.799-0.251-4.083-0.496-0.173-0.031-0.351 0.028-0.468 0.159-2.050 2.312-4.459 3.781-5.626 4.414v-6.082c0-0.165-0.081-0.318-0.217-0.412-2.638-1.815-5.783-4.863-5.783-9.086 0-7.011 6.886-12.502 15.677-12.502 8.736 0 15.323 5.374 15.323 12.5 0 6.882-5.957 11.505-14.823 11.505zM16.5 11.5c-1.103 0-2 0.897-2 2s0.897 2 2 2 2-0.897 2-2-0.897-2-2-2zM16.5 14.5c-0.551 0-1-0.448-1-1s0.449-1 1-1 1 0.448 1 1-0.449 1-1 1zM23.5 11.5c-1.103 0-2 0.897-2 2s0.897 2 2 2 2-0.897 2-2-0.897-2-2-2zM23.5 14.5c-0.551 0-1-0.448-1-1s0.449-1 1-1 1 0.448 1 1-0.449 1-1 1zM9.5 11.595c-1.103 0-2 0.897-2 2s0.897 2 2 2 2-0.897 2-2-0.897-2-2-2zM9.5 14.595c-0.551 0-1-0.448-1-1s0.449-1 1-1 1 0.448 1 1-0.449 1-1 1z"></path>
    </symbol>

    <symbol id="icon-notifications" viewBox="0 0 20 20">
      <path d="M4 8c0-0.001 0-0.002 0-0.003 0-2.608 1.664-4.827 3.988-5.654l0.042-0.013c-0.016-0.095-0.025-0.204-0.025-0.315 0-1.105 0.895-2 2-2s2 0.895 2 2c0 0.111-0.009 0.22-0.027 0.327l0.002-0.012c2.361 0.843 4.020 3.060 4.020 5.664 0 0.002 0 0.004 0 0.006v-0 6l3 2v1h-18v-1l3-2v-6zM12 18c0 1.105-0.895 2-2 2s-2-0.895-2-2v0h4z"></path>
    </symbol>

    <symbol id="icon-pause" viewBox="0 0 32 32">
      <path d="M16 0c-8.837 0-16 7.163-16 16s7.163 16 16 16 16-7.163 16-16-7.163-16-16-16zM16 29c-7.18 0-13-5.82-13-13s5.82-13 13-13 13 5.82 13 13-5.82 13-13 13zM10 10h4v12h-4zM18 10h4v12h-4z"></path>
    </symbol>

    <symbol id="icon-stats" viewBox="0 0 32 32">
      <path d="M5.998 5h-0.987v23h20v-0.963l-18.996-0.049-0.017-21.988zM8.011 25h5v-10.875l-5 5v5.875zM14.011 25h5v-9.875l-2 2-3-3v10.875zM20.011 25h5v-15.187l-5 5v10.187zM13.387 11.067l3.62 3.6 7.148-7.112 1.834 1.844-0.044-4.399-4.415 0.023 1.717 1.722-6.242 6.26-3.689-3.703-5.623 5.604 0.939 0.912 4.755-4.751z"></path>
    </symbol>

    <symbol id="icon-search" viewBox="0 0 32 32">
      <path d="M31.008 27.231l-7.58-6.447c-0.784-0.705-1.622-1.029-2.299-0.998 1.789-2.096 2.87-4.815 2.87-7.787 0-6.627-5.373-12-12-12s-12 5.373-12 12 5.373 12 12 12c2.972 0 5.691-1.081 7.787-2.87-0.031 0.677 0.293 1.515 0.998 2.299l6.447 7.58c1.104 1.226 2.907 1.33 4.007 0.23s0.997-2.903-0.23-4.007zM12 20c-4.418 0-8-3.582-8-8s3.582-8 8-8 8 3.582 8 8-3.582 8-8 8z"></path>
    </symbol>

    <symbol id="icon-info" viewBox="0 0 24 24">
      <path d="M13.839 17.525c-0.006 0.002-0.559 0.186-1.039 0.186-0.265 0-0.372-0.055-0.406-0.079-0.168-0.117-0.48-0.336 0.054-1.4l1-1.994c0.593-1.184 0.681-2.329 0.245-3.225-0.356-0.733-1.039-1.236-1.92-1.416-0.317-0.065-0.639-0.097-0.958-0.097-1.849 0-3.094 1.080-3.146 1.126-0.179 0.158-0.221 0.42-0.102 0.626 0.12 0.206 0.367 0.3 0.595 0.222 0.005-0.002 0.559-0.187 1.039-0.187 0.263 0 0.369 0.055 0.402 0.078 0.169 0.118 0.482 0.34-0.051 1.402l-1 1.995c-0.594 1.185-0.681 2.33-0.245 3.225 0.356 0.733 1.038 1.236 1.921 1.416 0.314 0.063 0.636 0.097 0.954 0.097 1.85 0 3.096-1.080 3.148-1.126 0.179-0.157 0.221-0.42 0.102-0.626-0.12-0.205-0.369-0.297-0.593-0.223z"></path>
      <path d="M15.5 6.001c0 1.381-1.119 2.5-2.5 2.5s-2.5-1.119-2.5-2.5c0-1.381 1.119-2.5 2.5-2.5s2.5 1.119 2.5 2.5z"></path>
    </symbol>

    <symbol id="icon-minus" viewBox="0 0 20 20">
      <path d="M10 20c-5.523 0-10-4.477-10-10s4.477-10 10-10v0c5.523 0 10 4.477 10 10s-4.477 10-10 10v0zM10 18c4.418 0 8-3.582 8-8s-3.582-8-8-8v0c-4.418 0-8 3.582-8 8s3.582 8 8 8v0zM15 9v2h-10v-2h10z"></path>
    </symbol>

    <symbol id="icon-minimize" viewBox="0 0 24 24">
      <path d="M16.414 9l5.293-5.293c0.391-0.391 0.391-1.024 0-1.414s-1.024-0.391-1.414 0l-5.293 5.293v-3.586c0-0.552-0.448-1-1-1s-1 0.448-1 1v6c0 0.136 0.027 0.265 0.076 0.383s0.121 0.228 0.216 0.323c0.001 0.001 0.001 0.001 0.002 0.002 0.092 0.092 0.202 0.166 0.323 0.216 0.118 0.049 0.247 0.076 0.383 0.076h6c0.552 0 1-0.448 1-1s-0.448-1-1-1zM3.707 21.707l5.293-5.293v3.586c0 0.552 0.448 1 1 1s1-0.448 1-1v-6c0-0.136-0.027-0.265-0.076-0.383s-0.121-0.228-0.216-0.323c-0.001-0.001-0.001-0.001-0.002-0.002-0.096-0.095-0.206-0.167-0.323-0.216-0.118-0.049-0.247-0.076-0.383-0.076h-6c-0.552 0-1 0.448-1 1s0.448 1 1 1h3.586l-5.293 5.293c-0.391 0.391-0.391 1.024 0 1.414s1.024 0.391 1.414 0z"></path>
    </symbol>

    <symbol id="icon-medal" viewBox="0 0 32 32">
      <path d="M15.626 20.992l-4.025 10.485-1.726-3.876-3.876 1.726 3.978-10.363c1.581 1.202 3.53 1.945 5.648 2.028v0zM22.074 18.964l3.978 10.363-3.876-1.726-1.726 3.876-4.025-10.485c2.119-0.083 4.068-0.826 5.648-2.028v0 0zM16.026 20v0c-4.971 0-9-4.029-9-9s4.029-9 9-9c4.971 0 9 4.029 9 9s-4.029 9-9 9zM16.026 17c3.314 0 6-2.686 6-6s-2.686-6-6-6c-3.314 0-6 2.686-6 6s2.686 6 6 6v0zM16.026 16c2.761 0 5-2.239 5-5s-2.239-5-5-5c-2.761 0-5 2.239-5 5s2.239 5 5 5v0z"></path>
    </symbol>

  </defs>
</svg>